<?xml version="1.0" encoding="utf-8"?>
<!-- Generator: Adobe Illustrator 21.0.0, SVG Export Plug-In . SVG Version: 6.00 Build 0)  -->
<svg version="1.1" id="Layer_1" xmlns="http://www.w3.org/2000/svg" xmlns:xlink="http://www.w3.org/1999/xlink" x="0px" y="0px"
	 viewBox="0 0 1688.2 411.8" style="enable-background:new 0 0 1688.2 411.8;" xml:space="preserve">
<style type="text/css">
	.st0{fill:#FFFFFF;stroke:#FFFFFF;stroke-miterlimit:10;}
	.st1{fill:#ECE9E2;stroke:#ECE9E2;stroke-miterlimit:10;}
	.st2{fill:#BDB18F;}
	.st3{fill:#E2E2EE;stroke:#E2E2EE;stroke-miterlimit:10;}
	.st4{fill:#ECE9E2;}
	.st5{fill:#FFFFFF;}
	.st6{enable-background:new    ;}
	.st7{fill:#60553D;}
	.st8{fill:#544A37;}
	.st9{font-family:'CourierNewPSMT';}
	.st10{font-size:42px;}
</style>
<title>logotipo</title>
<rect x="0.5" y="0.8" class="st0" width="1685.7" height="410.5"/>
<g>
	
		<image style="overflow:visible;enable-background:new    ;" width="728" height="410" id="image" xlink:href="1C99EE132F211B26.jpeg"  transform="matrix(1 0 0 1 0.5 0.78)">
	</image>
</g>
<polygon class="st1" points="204,410.8 0.5,195.1 0.5,410.8 "/>
<polygon class="st0" points="371.9,410.8 594.4,200.5 728.5,343.8 728.5,410.8 "/>
<polygon class="st0" points="0.5,162.2 238.3,410.8 204,410.8 0.5,195.1 "/>
<polygon class="st2" points="238.3,0.8 506.9,283.1 371.9,410.8 238.3,410.8 0.5,162.2 0.5,0.8 "/>
<polygon class="st0" points="310.4,0.8 271.9,36 238.3,0.8 "/>
<polygon class="st3" points="728.5,72.3 594.4,200.5 728.5,343.8 "/>
<polygon class="st4" points="310.4,0.8 271.9,36 506.9,283.1 728.5,72.3 728.5,0.8 "/>
<polygon class="st5" points="430.4,202.6 645.8,0.8 670.9,0.8 444.4,217.3 "/>
<g transform="translate(1456 410) rotate(180)">
	
		<image style="overflow:visible;enable-background:new    ;" width="728" height="410" id="image_2_" xlink:href="1C99EE132F211B2A.jpeg"  transform="matrix(-1 0 0 -1 1456 410)">
	</image>
</g>
<polygon class="st1" points="1253,0.8 1456.5,216.4 1456.5,0.8 "/>
<polygon class="st0" points="1085.1,0.8 862.6,211.1 728.5,67.8 728.5,0.8 "/>
<polygon class="st0" points="1456.5,249.4 1218.7,0.8 1253,0.8 1456.5,216.4 "/>
<polygon class="st2" points="1218.7,410.8 950.1,128.4 1085.1,0.8 1218.7,0.8 1456.5,249.4 1456.5,410.8 "/>
<polygon class="st0" points="1146.6,410.8 1185.1,375.5 1218.7,410.8 "/>
<polygon class="st3" points="728.5,339.3 862.6,211.1 728.5,67.8 "/>
<polygon class="st4" points="1146.6,410.8 1185.1,375.5 950.1,128.4 728.5,339.3 728.5,410.8 "/>
<polygon class="st5" points="1026.7,208.9 811.2,410.8 786.1,410.8 1012.7,194.2 "/>
<polygon class="st4" points="727.5,73.3 803.3,1.8 727.5,1.8 "/>
<polygon class="st4" points="728.5,339.3 652,410.8 728.5,410.8 "/>
<polygon class="st3" points="1687.3,1.1 1550.1,129.3 1687.3,272.7 "/>
<polygon class="st4" points="1686.2,339.8 1609.8,411.3 1686.2,411.3 "/>
<polygon class="st1" points="1457.2,217.1 1686.9,1.1 1456.5,1.9 "/>
<polygon class="st5" points="1405.7,165.1 1583.1,0.8 1603.7,0.8 1417.2,177 "/>
<g class="st6">
	<path class="st7" d="M548.6,287.6c-5,0-9-1.1-11.9-3.3c-2.9-2.2-4.7-5.4-5.4-9.6c-0.4-4,0.4-8.6,2.4-13.7c2-5.1,5-10.1,8.9-14.9
		c3.9-4.8,8.5-9.2,13.8-13.1c5.3-3.9,11-6.6,17.1-8.2c5.5-1.4,10.7-2.5,15.7-3.2c5-0.7,9.8-1.4,14.6-2.2c1-0.3,2-0.5,3-0.5
		c1-0.1,2-0.2,3-0.3c5-10.2,9.7-20.8,14-31.8c4.3-10.9,8.6-21.6,12.7-32c1.4-4,2.9-7.9,4.3-11.6c1.4-3.7,2.8-7.2,4.1-10.7
		c-2.5,0.4-4.9,0.8-7.5,1.2c-2.5,0.4-5.1,0.5-7.7,0.5c-9.1,0-15.4-2.8-19-8.4c-2.2-2.9-3.4-6.3-3.7-10.4
		c-3.3,6.2-7.5,13.6-12.5,22.2c-5,8.6-10.7,17.7-16.8,27.1c-6.2,9.4-12.8,18.8-19.8,28c-7,9.2-14.1,17.5-21.4,24.8
		c-7.3,7.3-14.5,13.3-21.8,17.8c-7.3,4.5-14.2,6.8-20.8,6.8c-0.9,0-1.6-0.3-2.3-1c-0.6-0.6-1-1.4-1-2.3c0-0.9,0.3-1.5,1-2.1
		c0.6-0.5,1.4-0.8,2.3-0.8c5.8,0,11.8-2,18-5.9c6.3-4,12.6-9.1,19.1-15.6c6.5-6.4,12.9-13.8,19.2-22c6.3-8.3,12.4-16.7,18.3-25.4
		c5.8-8.6,11.2-17.1,16.1-25.4c4.9-8.3,9.2-15.7,12.9-22.2c3.7-6.6,6.6-11.9,8.6-16c2.1-4.1,3.2-6.2,3.3-6.4c0.4-0.6,1-1,1.8-1.3
		c0.8-0.3,1.6-0.2,2.5,0.2c0.6,0.3,1.1,0.8,1.5,1.4c0.4,0.6,0.4,1.4,0,2.3c-0.9,3-1.5,5.8-1.9,8.4c-0.3,2.5-0.3,4.9-0.1,7.3
		c0.2,2.5,1,4.7,2.5,6.7c2.7,3.6,7.4,5.4,14,5.4c6.5,0,12.5-0.9,17.9-2.6c5.3-13,10.2-22.9,14.6-29.7c4.4-6.8,9.1-10.3,14.1-10.3
		c3.6,0,6.1,1.4,7.6,4.1c1.3,2.2,1.7,4.8,1.2,8c-0.5,3.2-1.8,6.5-4,9.9c-2.5,4.3-6.1,8.7-10.9,13.1c-4.8,4.4-10.8,7.8-17.8,10.3
		c-1.9,4-3.6,8.3-5.3,12.9c-1.7,4.5-3.4,9.1-5.3,13.7c-3.6,9.6-7.5,19.6-11.6,29.9c-4.1,10.3-8.5,20.3-13.1,30.1
		c7.3-1.3,14.4-3.1,21.1-5.5s13.5-6.4,20.4-12.2c0.7-0.4,1.5-0.7,2.5-0.8c0.9-0.1,1.6,0.3,2.1,1.2c0.6,0.7,0.8,1.5,0.6,2.5
		c-0.1,0.9-0.6,1.6-1.3,2.1c-4.2,3.3-8.3,6.1-12.3,8.3c-4,2.2-8,4.1-12,5.6c-4,1.5-8,2.7-12.1,3.6c-4.1,0.9-8.2,1.7-12.2,2.4
		c-4.3,8.8-8.9,17-13.7,24.7c-4.8,7.7-9.9,14.4-15.3,20.1c-5.4,5.7-11.1,10.2-17.2,13.5C561.8,285.9,555.4,287.6,548.6,287.6z
		 M606.5,225.4c-0.3,0-0.6,0-1,0.1c-0.4,0.1-0.8,0.1-1.2,0.1c-4.6,0.7-9.3,1.4-14.1,2.2c-4.8,0.7-9.9,1.7-15.2,3
		c-5.6,1.4-10.8,3.9-15.6,7.5c-4.8,3.5-8.8,7.4-12.2,11.7c-3.4,4.2-5.9,8.5-7.6,12.9c-1.7,4.3-2.3,8-1.8,11c0,0.6,0.1,1.3,0.3,2.2
		c0.2,0.9,0.7,1.7,1.4,2.5c0.7,0.8,1.8,1.5,3.2,2.1c1.4,0.6,3.4,0.9,5.8,0.9c5.8,0,11.3-1.4,16.5-4.3c5.3-2.9,10.3-6.8,15.1-11.9
		c4.8-5,9.4-11,13.7-17.8C598.3,240.4,602.5,233.1,606.5,225.4z M676.5,91.4c-3,0-6.3,2.9-9.8,8.7c-3.5,5.8-7.2,13.2-10.9,22.1
		c4.9-2.4,9-5.3,12.3-8.4c3.3-3.2,6-6.4,8-9.7c1.6-2.7,2.6-5.2,2.9-7.3c0.4-2.2,0.2-3.7-0.3-4.5c-0.3-0.1-0.5-0.3-0.8-0.5
		C677.7,91.5,677.2,91.4,676.5,91.4z"/>
	<path class="st7" d="M659.4,245c-5.2,0-9.1-1.4-11.9-4.1c-2.9-2.4-4.3-5.9-4.3-10.4c0-4.8,1.6-10.1,4.8-16
		c3.2-5.9,7.2-11.4,12.1-16.5c4.9-5.1,10.3-9.4,16.3-12.9c6-3.5,11.8-5.2,17.6-5.2c2.3,0,4.4,0.2,6.2,0.5c1.8,0.4,3.2,1,4.2,1.8
		c2.7,2,4.1,4.6,4.1,7.8c0,3.2-1.2,6.6-3.6,10.3s-5.4,7.1-9.2,10.4c-3.7,3.2-7.9,5.9-12.4,8.1c-4.5,2.2-9,3.2-13.5,3.2
		c-4.8,0-8.2-0.8-10.3-2.4c-2.1-1.6-3.5-3.2-4.2-4.8c0-0.1-0.1-0.3-0.2-0.4c-1.6,2.9-2.9,5.7-4,8.5c-1.1,2.8-1.6,5.3-1.6,7.5
		c0,2.5,0.6,4.4,1.7,5.8c1.7,1.3,4.5,1.9,8.2,1.9c5.8,0,11.7-1,17.9-2.9c6.2-1.9,12.2-4.3,18-7.1c5.8-2.8,11.4-5.9,16.6-9.3
		c5.3-3.4,9.9-6.5,13.8-9.4c4-2.9,7.1-5.3,9.4-7.2c2.3-1.9,3.5-2.9,3.7-2.9c0.4-0.7,1.1-1,1.9-1c0.9,0.1,1.7,0.5,2.4,1.2
		c0.4,0.4,0.6,1.1,0.6,1.9c0,0.9-0.3,1.7-0.9,2.4c-0.4,0.3-1.9,1.5-4.4,3.6c-2.5,2.1-5.8,4.6-9.9,7.7s-8.9,6.3-14.3,9.8
		c-5.4,3.5-11.2,6.8-17.3,9.7c-6.1,3-12.4,5.4-18.8,7.3C671.9,244,665.6,245,659.4,245z M665.2,201.4c0,0.1-0.1,0.4-0.4,0.6
		c-1.3,1.4-2.4,3.2-3.2,5.3c-0.9,2.1-1,3.9-0.4,5.5c0.6,1.3,1.8,2.1,3.8,2.4c1.9,0.3,3.6,0.4,4.9,0.4c3.7,0,7.6-0.9,11.4-2.8
		c3.9-1.9,7.4-4.1,10.5-6.7c3.1-2.6,5.6-5.4,7.7-8.3c2-3,3-5.5,3-7.7c0-1-0.5-1.9-1.5-2.6c-0.4-0.3-1.2-0.6-2.3-0.9
		c-1.1-0.3-2.6-0.4-4.6-0.4c-5,0-10,1.4-15,4.3C674,193.5,669.4,197.1,665.2,201.4z"/>
	<path class="st7" d="M729,244.6c-0.4,0-0.8,0-1.2-0.1c-0.4-0.1-0.8-0.1-1.2-0.1c-2.4-0.4-4.2-1.3-5.3-2.5s-1.8-2.4-2.1-3.6
		c-0.7-2.2-0.6-4.9,0.4-8.1c1-3.2,2.5-6.6,4.5-10.2c2-3.5,4.4-7.1,7-10.8c2.7-3.7,5.3-7.1,7.9-10.3c2.6-3.2,5-6,7.1-8.4
		c2.2-2.4,3.7-4.2,4.8-5.2c0.7-0.6,1.5-0.9,2.4-1.1c0.9-0.1,1.6,0.1,2.2,0.9c1.7,1.7,1.7,3.2,0,4.5c-3.5,3.7-7.1,8-10.9,12.6
		c-3.8,4.7-7.3,9.3-10.4,13.7c-3.1,4.5-5.5,8.6-7.3,12.3c-1.8,3.7-2.4,6.6-1.8,8.4c0,0.1,0.1,0.3,0.4,0.5c0.3,0.2,1,0.5,2.2,0.8
		c3,0.4,6.6-0.7,10.7-3.5c4.1-2.7,8.4-6.4,12.9-11c4.5-4.6,8.9-9.7,13.3-15.3c4.4-5.6,8.4-11.1,12-16.4c1.2-1.6,2.1-2.9,2.9-4
		c0.8-1.1,1.4-2,1.8-2.7c1.3-1.7,2.7-2,4.3-0.9c0.6,0.4,1,1.1,1.3,1.9c0.3,0.9,0.1,1.7-0.4,2.4c-0.3,0.4-0.8,1.2-1.4,2.3
		c-0.6,1.1-1.5,2.3-2.7,3.8c-2.3,3.7-4.6,7.6-6.8,11.7c-2.2,4-4.1,7.9-5.6,11.4c-1.5,3.6-2.6,6.9-3.2,9.8c-0.6,3-0.5,5.2,0.3,6.6
		c0,0.1,0.2,0.4,0.5,0.6c0.4,0.3,1.2,0.4,2.5,0.4c3.9,0,8-1.8,12.3-5.4c4.3-3.6,8.5-7.9,12.4-13c4-5,7.6-10.3,10.9-15.9
		c3.3-5.5,5.9-10.2,7.8-13.9c0.1-0.3,0.3-0.6,0.4-0.9c0.1-0.3,0.3-0.6,0.4-1.1c0.4-0.7,1-1.2,1.8-1.4c0.8-0.2,1.5,0,2.3,0.5
		c0.7,0.3,1.2,0.8,1.5,1.6c0.3,0.8,0.3,1.5,0,2.3l-1.1,1.5c-1.3,3.3-1.7,6.4-1.3,9.3c0.4,2.9,1.7,5.1,3.7,6.7c2.4,2,5.6,2.5,9.5,1.3
		c3.9-1.2,8.1-3.7,12.7-7.6c0.7-0.7,1.5-1,2.3-1c0.8,0.1,1.5,0.4,2.1,1c0.7,0.6,1,1.3,0.9,2.2c-0.1,0.9-0.6,1.7-1.3,2.4
		c-4,3.7-7.7,6.3-11,7.7c-3.3,1.4-6.2,2.1-8.7,2.2c-2.5,0.1-4.6-0.2-6.4-1c-1.7-0.7-3.1-1.4-4.1-2.2c-1.3-1.2-2.3-2.4-3.1-3.7
		c-0.8-1.3-1.5-2.7-2.1-4.3c-2.3,3.9-5,8.1-8.2,12.6c-3.2,4.5-6.6,8.8-10.3,12.7c-3.7,4-7.5,7.2-11.4,9.8c-4,2.6-8,3.9-12,3.9
		c-2.6,0-4.6-0.5-5.9-1.6c-1.4-1.1-2.3-2.2-2.9-3.3c-1.7-3.6-1.4-8.6,0.9-15.1c-2.7,3-5.5,5.9-8.4,8.6c-2.9,2.7-5.8,5.2-8.6,7.2
		c-2.9,2.1-5.7,3.8-8.4,5.1S731.3,244.6,729,244.6z"/>
	<path class="st7" d="M844.1,245c-5.2,0-9.1-1.4-11.9-4.1c-2.9-2.4-4.3-5.9-4.3-10.4c0-4.8,1.6-10.1,4.8-16
		c3.2-5.9,7.2-11.4,12.1-16.5c4.9-5.1,10.3-9.4,16.3-12.9c6-3.5,11.8-5.2,17.6-5.2c2.3,0,4.4,0.2,6.2,0.5c1.8,0.4,3.2,1,4.2,1.8
		c2.7,2,4.1,4.6,4.1,7.8c0,3.2-1.2,6.6-3.6,10.3s-5.4,7.1-9.2,10.4c-3.7,3.2-7.9,5.9-12.4,8.1c-4.5,2.2-9,3.2-13.5,3.2
		c-4.8,0-8.2-0.8-10.3-2.4c-2.1-1.6-3.5-3.2-4.2-4.8c0-0.1-0.1-0.3-0.2-0.4c-1.6,2.9-2.9,5.7-4,8.5c-1.1,2.8-1.6,5.3-1.6,7.5
		c0,2.5,0.6,4.4,1.7,5.8c1.7,1.3,4.5,1.9,8.2,1.9c5.8,0,11.7-1,17.9-2.9c6.2-1.9,12.2-4.3,18-7.1c5.8-2.8,11.4-5.9,16.6-9.3
		c5.3-3.4,9.9-6.5,13.8-9.4c4-2.9,7.1-5.3,9.4-7.2c2.3-1.9,3.5-2.9,3.7-2.9c0.4-0.7,1.1-1,1.9-1c0.9,0.1,1.7,0.5,2.4,1.2
		c0.4,0.4,0.6,1.1,0.6,1.9c0,0.9-0.3,1.7-0.9,2.4c-0.4,0.3-1.9,1.5-4.4,3.6c-2.5,2.1-5.8,4.6-9.9,7.7c-4.1,3-8.9,6.3-14.3,9.8
		c-5.4,3.5-11.2,6.8-17.3,9.7c-6.1,3-12.4,5.4-18.8,7.3C856.6,244,850.3,245,844.1,245z M849.9,201.4c0,0.1-0.1,0.4-0.4,0.6
		c-1.3,1.4-2.4,3.2-3.2,5.3c-0.9,2.1-1,3.9-0.4,5.5c0.6,1.3,1.8,2.1,3.8,2.4c1.9,0.3,3.6,0.4,4.9,0.4c3.7,0,7.6-0.9,11.4-2.8
		c3.9-1.9,7.4-4.1,10.5-6.7c3.1-2.6,5.6-5.4,7.7-8.3c2-3,3-5.5,3-7.7c0-1-0.5-1.9-1.5-2.6c-0.4-0.3-1.2-0.6-2.3-0.9
		c-1.1-0.3-2.6-0.4-4.6-0.4c-5,0-10,1.4-15,4.3C858.7,193.5,854.1,197.1,849.9,201.4z"/>
	<path class="st7" d="M926.2,241.8c-3,0-5.3-0.5-6.7-1.6c-1.4-1.1-2.5-2.2-3.2-3.3c-0.7-1.2-1.3-2.6-1.6-4.3c-0.4-1.7-0.3-4,0.1-6.9
		c0.4-2.9,1.3-6.5,2.7-10.8c1.4-4.3,3.5-9.6,6.4-16c1.6-3.2,3.2-6.6,5-10.2c1.7-3.6,3.7-7.5,6-11.7c6-11.4,11.4-21,16.1-28.8
		c4.7-7.8,9-14.2,12.9-19c3.9-4.8,7.5-8.3,10.9-10.5c3.4-2.2,6.9-3.2,10.7-3.2c2.4,0,4.1,0.5,5.1,1.4c0.9,0.9,1.5,1.8,1.8,2.5
		c1,2.6,0.4,6.2-1.9,10.9c-2.3,4.7-5.5,9.9-9.7,15.6c-4.2,5.7-8.9,11.6-14.3,17.6c-5.3,6-10.5,11.7-15.4,17
		c-5,5.3-9.4,9.8-13.4,13.7c-4,3.9-6.7,6.6-8.1,8c-2.5,5.3-4.3,9.8-5.6,13.5s-2.2,6.7-2.6,9.2c-0.4,2.5-0.6,4.4-0.4,5.7
		c0.1,1.4,0.4,2.3,0.6,2.9c0.3,0.4,0.7,0.9,1.3,1.3c0.6,0.4,1.7,0.6,3.5,0.6c3.2,0,6.8-1,10.9-3c4.1-2,8.5-4.7,13.1-8
		c4.6-3.3,9.4-7.1,14.3-11.4c4.9-4.3,9.9-8.8,14.9-13.4c0.4-0.7,1-1.1,1.8-1.1c0.8,0,1.5,0.4,2.3,1.1c0.7,0.6,1.1,1.3,1.1,2.2
		c0,0.9-0.4,1.7-1.1,2.4c-12.1,11.4-22.9,20.5-32.3,27.4C941.7,238.3,933.4,241.8,926.2,241.8z M985.3,121.7c-2.9,0-5.8,1.2-8.9,3.5
		c-3,2.3-6.3,5.8-9.8,10.6c-3.5,4.8-7.5,10.8-11.8,18.1c-4.3,7.3-9.2,16.1-14.7,26.1l-3,6c5.8-5.9,11.7-12.3,17.8-19.2
		c6.1-6.9,11.6-13.5,16.5-19.7c4.9-6.2,8.8-11.6,11.7-16.3c2.9-4.7,4-7.7,3.2-9.2H985.3z"/>
	<path class="st7" d="M983,241.8c-0.3,0-0.6-0.1-0.9-0.3c-0.3-0.2-0.6-0.4-0.9-0.5c-0.7-0.3-1.2-0.8-1.3-1.6c-0.1-0.8,0-1.5,0.4-2.3
		c5-8.6,8.7-15.5,11.1-20.6c2.4-5.1,3.9-9.1,4.6-12c0.9-3.3,0.9-5.5,0.2-6.7c-0.9-0.7-2.7-0.4-5.4,1c-2.7,1.4-5.1,3.1-7.1,5.1
		c-1.6,1.2-3.1,1.2-4.5,0.2c-0.7-0.7-1.1-1.5-1.1-2.4c0-0.9,0.4-1.6,1.1-2.2c1-1.2,2.4-2.4,4.2-3.7c1.8-1.3,3.7-2.3,5.6-3.1
		c1.9-0.8,3.9-1.3,5.7-1.4c1.9-0.1,3.5,0.4,5,1.5c1.3,0.9,2.2,2.3,2.8,4.2c0.6,1.9,0.3,5.1-0.9,9.4c4-5.3,7.7-10,10.9-14
		c3.2-4,6.1-7.5,8.5-10.4c2.7-3.3,5.2-6.1,7.3-8.4c0.4-0.6,1-0.9,1.7-1.1c0.7-0.1,1.4-0.1,1.9,0.2c1.7,1.3,2.2,2.7,1.5,4.1
		c-1.6,3.3-2.8,6.6-3.8,9.9c-0.9,3.3-1.6,6.4-1.9,9.4c-0.4,3-0.3,5.7,0.2,8.2c0.5,2.5,1.5,4.5,3.1,5.9c2,2,4.8,3.3,8.2,3.9
		c3.5,0.6,7.5,0.4,12-0.4c4.5-0.9,9.4-2.5,14.6-4.9s10.5-5.6,16-9.8c0.7-0.6,1.5-0.8,2.4-0.6c0.9,0.1,1.7,0.6,2.4,1.3
		c0.4,0.7,0.6,1.5,0.5,2.3c-0.1,0.8-0.5,1.5-1.2,2.1c-5.9,4.6-11.8,8.3-17.8,11c-6,2.7-11.7,4.5-17.1,5.4
		c-5.4,0.9-10.3,0.8-14.7-0.3c-4.4-1.1-7.9-3.2-10.5-6.4c-2.3-2.9-3.8-6.6-4.4-11c-0.6-4.5,0-9.1,2.1-14c-4.3,5-9.7,11.9-16.2,20.6
		c-6.5,8.7-13.8,19-22,31C985.3,241.3,984.4,241.8,983,241.8z"/>
	<path class="st7" d="M1036.8,354.1c-1.4,0-2.9-0.2-4.3-0.6c-3.5-1.4-5.6-3.8-6.5-7.1c-1-3.9-0.3-8.9,2.1-14.9s5.8-12.6,10.4-19.7
		c4.5-7.1,9.9-14.4,16-21.9c6.1-7.6,12.5-14.8,19.1-21.7c3.7-4,7.6-7.8,11.4-11.3c3.9-3.5,7.8-6.9,11.9-10c4.2-9.8,8.5-19.5,13-29.2
		c4.5-9.6,9-19,13.6-28.1c-10.4,12-19.2,21.1-26.6,27.3s-14.1,10-20.3,11.1c-0.6,0-1.1-0.1-1.5-0.2c-0.4-0.1-0.9-0.3-1.3-0.4
		c-0.3-0.3-0.5-0.7-0.6-1.2c-0.1-0.5-0.4-1-0.6-1.4c0-0.1,0.1-1.2,0.2-3c0.1-1.9,0.6-4.3,1.5-7.2c0.9-3,2.3-6.3,4.2-10
		c1.9-3.7,4.7-7.6,8.3-11.4c0.7-0.6,1.5-0.9,2.3-1.1c0.8-0.1,1.5,0.1,2.3,0.9c0.7,0.7,1.1,1.5,1.1,2.4s-0.4,1.5-1.1,1.9
		c-4.2,4.6-7.1,9-8.7,13.3c-1.7,4.2-2.6,7.6-2.9,10c3.7-1.4,7.8-4,12.1-7.6c4.3-3.6,9-8,13.9-13.2c5-5.2,10.2-11,15.8-17.6
		c5.5-6.6,11.3-13.6,17.4-21.1c1.2-1.4,2.6-1.5,4.3-0.2c0.6,0.3,1,0.8,1.2,1.6c0.2,0.8,0.1,1.5-0.3,2.3c-6.5,10.8-12.7,22.5-18.7,35
		c-6,12.5-11.9,25.3-17.8,38.4c6.2-4.6,12.3-9,18.5-13.2c6.1-4.2,12.2-8.2,18.3-12.1c3.6-2.4,7.1-4.8,10.6-6.9s6.9-4.5,10.4-6.9
		c0.6-0.6,1.3-0.8,2.2-0.6c0.9,0.1,1.5,0.6,1.9,1.3c1.2,1.9,0.9,3.5-0.6,4.8l-21,13.6c-7.6,5-15.2,10.2-22.8,15.3
		c-7.6,5.2-15.2,10.9-22.8,17.1c-1.2,2.2-2,4.1-2.6,5.8c-6,13.5-11.8,26.2-17.3,38.1c-5.5,11.9-10.8,22.2-15.9,31.1
		c-5.1,8.9-10.1,15.8-15,21C1046.3,351.5,1041.5,354.1,1036.8,354.1z M1090.8,259.7c-4.2,3.9-8.4,8.1-12.7,12.7
		c-8.2,8.6-15.3,16.8-21.4,24.6c-6,7.8-11,14.8-14.9,21.1c-3.9,6.3-6.7,11.7-8.3,16.3c-1.7,4.6-2.2,8.1-1.6,10.4
		c0.3,0.7,0.6,1.3,1,1.6c0.4,0.4,0.9,0.7,1.6,1c3.7,1.3,7.9-0.4,12.3-5.1c4.5-4.7,9.1-11.2,13.9-19.5c4.8-8.4,9.8-18,14.8-29.1
		C1080.5,282.7,1085.6,271.4,1090.8,259.7z"/>
</g>
<text transform="matrix(1 0 0 1 698.94 308.56)" class="st8 st9 st10">JULIA PERIS</text>
</svg>
